<mxfile host="app.diagrams.net" agent="Mozilla/5.0 (Windows NT 10.0; Win64; x64) AppleWebKit/537.36 (KHTML, like Gecko) Chrome/134.0.0.0 Safari/537.36" version="26.2.8">
  <diagram name="Página-1" id="hHS1gxUIrXCBEPjVqyG-">
    <mxGraphModel dx="3933" dy="1921" grid="0" gridSize="10" guides="1" tooltips="1" connect="1" arrows="1" fold="1" page="0" pageScale="1" pageWidth="827" pageHeight="1169" math="0" shadow="0">
      <root>
        <mxCell id="0" />
        <mxCell id="1" parent="0" />
        <mxCell id="7VIyenH2oEbh0rDHe2Yn-2" value="" style="edgeStyle=orthogonalEdgeStyle;rounded=0;orthogonalLoop=1;jettySize=auto;html=1;" edge="1" parent="1" source="b1DykwZpFWUYhPnEk9ig-1" target="7VIyenH2oEbh0rDHe2Yn-1">
          <mxGeometry relative="1" as="geometry" />
        </mxCell>
        <mxCell id="b1DykwZpFWUYhPnEk9ig-1" value="Inicio" style="ellipse;whiteSpace=wrap;html=1;" parent="1" vertex="1">
          <mxGeometry x="-2995" y="-1214" width="84" height="54" as="geometry" />
        </mxCell>
        <mxCell id="7VIyenH2oEbh0rDHe2Yn-4" value="" style="edgeStyle=orthogonalEdgeStyle;rounded=0;orthogonalLoop=1;jettySize=auto;html=1;" edge="1" parent="1" source="7VIyenH2oEbh0rDHe2Yn-1" target="7VIyenH2oEbh0rDHe2Yn-3">
          <mxGeometry relative="1" as="geometry" />
        </mxCell>
        <mxCell id="7VIyenH2oEbh0rDHe2Yn-1" value="Definir num, suma como Entero" style="rounded=0;whiteSpace=wrap;html=1;" vertex="1" parent="1">
          <mxGeometry x="-3013" y="-1139" width="120" height="60" as="geometry" />
        </mxCell>
        <mxCell id="7VIyenH2oEbh0rDHe2Yn-11" value="" style="edgeStyle=orthogonalEdgeStyle;rounded=0;orthogonalLoop=1;jettySize=auto;html=1;" edge="1" parent="1" source="7VIyenH2oEbh0rDHe2Yn-3" target="7VIyenH2oEbh0rDHe2Yn-5">
          <mxGeometry relative="1" as="geometry" />
        </mxCell>
        <mxCell id="7VIyenH2oEbh0rDHe2Yn-3" value="Lista de número del 1 al 10" style="shape=parallelogram;perimeter=parallelogramPerimeter;whiteSpace=wrap;html=1;fixedSize=1;" vertex="1" parent="1">
          <mxGeometry x="-3055.5" y="-1051" width="205" height="37" as="geometry" />
        </mxCell>
        <mxCell id="7VIyenH2oEbh0rDHe2Yn-13" value="" style="edgeStyle=orthogonalEdgeStyle;rounded=0;orthogonalLoop=1;jettySize=auto;html=1;" edge="1" parent="1" source="7VIyenH2oEbh0rDHe2Yn-5" target="7VIyenH2oEbh0rDHe2Yn-7">
          <mxGeometry relative="1" as="geometry" />
        </mxCell>
        <mxCell id="7VIyenH2oEbh0rDHe2Yn-5" value="num = num + 1" style="rounded=0;whiteSpace=wrap;html=1;" vertex="1" parent="1">
          <mxGeometry x="-3010" y="-953" width="114" height="23" as="geometry" />
        </mxCell>
        <mxCell id="7VIyenH2oEbh0rDHe2Yn-16" value="" style="edgeStyle=orthogonalEdgeStyle;rounded=0;orthogonalLoop=1;jettySize=auto;html=1;" edge="1" parent="1" source="7VIyenH2oEbh0rDHe2Yn-7" target="7VIyenH2oEbh0rDHe2Yn-15">
          <mxGeometry relative="1" as="geometry" />
        </mxCell>
        <mxCell id="7VIyenH2oEbh0rDHe2Yn-7" value="num" style="shape=parallelogram;perimeter=parallelogramPerimeter;whiteSpace=wrap;html=1;fixedSize=1;" vertex="1" parent="1">
          <mxGeometry x="-2994" y="-906" width="82" height="22" as="geometry" />
        </mxCell>
        <mxCell id="7VIyenH2oEbh0rDHe2Yn-22" value="" style="edgeStyle=orthogonalEdgeStyle;rounded=0;orthogonalLoop=1;jettySize=auto;html=1;" edge="1" parent="1" source="7VIyenH2oEbh0rDHe2Yn-15" target="7VIyenH2oEbh0rDHe2Yn-17">
          <mxGeometry relative="1" as="geometry" />
        </mxCell>
        <mxCell id="7VIyenH2oEbh0rDHe2Yn-15" value="suma = suma + num" style="rounded=0;whiteSpace=wrap;html=1;" vertex="1" parent="1">
          <mxGeometry x="-3010" y="-858" width="114" height="23" as="geometry" />
        </mxCell>
        <mxCell id="7VIyenH2oEbh0rDHe2Yn-33" value="" style="edgeStyle=orthogonalEdgeStyle;rounded=0;orthogonalLoop=1;jettySize=auto;html=1;" edge="1" parent="1" source="7VIyenH2oEbh0rDHe2Yn-17" target="7VIyenH2oEbh0rDHe2Yn-32">
          <mxGeometry relative="1" as="geometry" />
        </mxCell>
        <mxCell id="7VIyenH2oEbh0rDHe2Yn-17" value="num = 100" style="rhombus;whiteSpace=wrap;html=1;" vertex="1" parent="1">
          <mxGeometry x="-2993" y="-811" width="80" height="56" as="geometry" />
        </mxCell>
        <mxCell id="7VIyenH2oEbh0rDHe2Yn-21" value="" style="endArrow=classic;html=1;rounded=0;exitX=0;exitY=0.5;exitDx=0;exitDy=0;" edge="1" parent="1" source="7VIyenH2oEbh0rDHe2Yn-17">
          <mxGeometry width="50" height="50" relative="1" as="geometry">
            <mxPoint x="-3105.5" y="-805" as="sourcePoint" />
            <mxPoint x="-3068" y="-783" as="targetPoint" />
          </mxGeometry>
        </mxCell>
        <mxCell id="7VIyenH2oEbh0rDHe2Yn-23" value="" style="endArrow=classic;html=1;rounded=0;" edge="1" parent="1">
          <mxGeometry width="50" height="50" relative="1" as="geometry">
            <mxPoint x="-3062" y="-785" as="sourcePoint" />
            <mxPoint x="-3064" y="-982" as="targetPoint" />
          </mxGeometry>
        </mxCell>
        <mxCell id="7VIyenH2oEbh0rDHe2Yn-24" value="" style="endArrow=classic;html=1;rounded=0;" edge="1" parent="1">
          <mxGeometry width="50" height="50" relative="1" as="geometry">
            <mxPoint x="-3064" y="-978" as="sourcePoint" />
            <mxPoint x="-2956" y="-978" as="targetPoint" />
          </mxGeometry>
        </mxCell>
        <mxCell id="7VIyenH2oEbh0rDHe2Yn-25" value="F" style="text;html=1;align=center;verticalAlign=middle;whiteSpace=wrap;rounded=0;" vertex="1" parent="1">
          <mxGeometry x="-3025" y="-808" width="31" height="24" as="geometry" />
        </mxCell>
        <mxCell id="7VIyenH2oEbh0rDHe2Yn-28" value="V" style="text;html=1;align=center;verticalAlign=middle;whiteSpace=wrap;rounded=0;" vertex="1" parent="1">
          <mxGeometry x="-2954" y="-747" width="54" height="25" as="geometry" />
        </mxCell>
        <mxCell id="7VIyenH2oEbh0rDHe2Yn-31" value="Fin" style="ellipse;whiteSpace=wrap;html=1;" vertex="1" parent="1">
          <mxGeometry x="-2995" y="-598" width="82" height="39" as="geometry" />
        </mxCell>
        <mxCell id="7VIyenH2oEbh0rDHe2Yn-35" value="" style="edgeStyle=orthogonalEdgeStyle;rounded=0;orthogonalLoop=1;jettySize=auto;html=1;exitX=0.492;exitY=0.843;exitDx=0;exitDy=0;exitPerimeter=0;" edge="1" parent="1" source="7VIyenH2oEbh0rDHe2Yn-32" target="7VIyenH2oEbh0rDHe2Yn-31">
          <mxGeometry relative="1" as="geometry" />
        </mxCell>
        <mxCell id="7VIyenH2oEbh0rDHe2Yn-32" value="Esta es la sumatoria de los números del 1 al 10" style="shape=document;whiteSpace=wrap;html=1;boundedLbl=1;" vertex="1" parent="1">
          <mxGeometry x="-3021" y="-708" width="136" height="80" as="geometry" />
        </mxCell>
        <mxCell id="7VIyenH2oEbh0rDHe2Yn-36" value="&lt;b&gt;&lt;font style=&quot;font-size: 24px;&quot;&gt;Repeat&lt;/font&gt;&lt;/b&gt;" style="text;html=1;align=center;verticalAlign=middle;whiteSpace=wrap;rounded=0;" vertex="1" parent="1">
          <mxGeometry x="-3001.5" y="-1270" width="95" height="42" as="geometry" />
        </mxCell>
        <mxCell id="7VIyenH2oEbh0rDHe2Yn-37" value="&lt;font style=&quot;font-size: 24px;&quot;&gt;&lt;b&gt;While&lt;/b&gt;&lt;/font&gt;" style="text;html=1;align=center;verticalAlign=middle;whiteSpace=wrap;rounded=0;" vertex="1" parent="1">
          <mxGeometry x="-2308.75" y="-1264" width="60" height="30" as="geometry" />
        </mxCell>
        <mxCell id="7VIyenH2oEbh0rDHe2Yn-38" value="&lt;font style=&quot;font-size: 24px;&quot;&gt;&lt;b&gt;For&lt;/b&gt;&lt;/font&gt;" style="text;html=1;align=center;verticalAlign=middle;whiteSpace=wrap;rounded=0;" vertex="1" parent="1">
          <mxGeometry x="-1669" y="-1270" width="60" height="30" as="geometry" />
        </mxCell>
        <mxCell id="7VIyenH2oEbh0rDHe2Yn-39" value="" style="edgeStyle=orthogonalEdgeStyle;rounded=0;orthogonalLoop=1;jettySize=auto;html=1;" edge="1" parent="1" source="7VIyenH2oEbh0rDHe2Yn-40" target="7VIyenH2oEbh0rDHe2Yn-42">
          <mxGeometry relative="1" as="geometry" />
        </mxCell>
        <mxCell id="7VIyenH2oEbh0rDHe2Yn-40" value="Inicio" style="ellipse;whiteSpace=wrap;html=1;" vertex="1" parent="1">
          <mxGeometry x="-2320.75" y="-1214" width="84" height="54" as="geometry" />
        </mxCell>
        <mxCell id="7VIyenH2oEbh0rDHe2Yn-41" value="" style="edgeStyle=orthogonalEdgeStyle;rounded=0;orthogonalLoop=1;jettySize=auto;html=1;" edge="1" parent="1" source="7VIyenH2oEbh0rDHe2Yn-42" target="7VIyenH2oEbh0rDHe2Yn-44">
          <mxGeometry relative="1" as="geometry" />
        </mxCell>
        <mxCell id="7VIyenH2oEbh0rDHe2Yn-42" value="Definir num, suma como Entero" style="rounded=0;whiteSpace=wrap;html=1;" vertex="1" parent="1">
          <mxGeometry x="-2338.75" y="-1139" width="120" height="60" as="geometry" />
        </mxCell>
        <mxCell id="7VIyenH2oEbh0rDHe2Yn-62" value="" style="edgeStyle=orthogonalEdgeStyle;rounded=0;orthogonalLoop=1;jettySize=auto;html=1;" edge="1" parent="1" source="7VIyenH2oEbh0rDHe2Yn-44" target="7VIyenH2oEbh0rDHe2Yn-52">
          <mxGeometry relative="1" as="geometry" />
        </mxCell>
        <mxCell id="7VIyenH2oEbh0rDHe2Yn-44" value="Lista de número del 1 al 10" style="shape=parallelogram;perimeter=parallelogramPerimeter;whiteSpace=wrap;html=1;fixedSize=1;" vertex="1" parent="1">
          <mxGeometry x="-2381.25" y="-1051" width="205" height="37" as="geometry" />
        </mxCell>
        <mxCell id="7VIyenH2oEbh0rDHe2Yn-45" value="" style="edgeStyle=orthogonalEdgeStyle;rounded=0;orthogonalLoop=1;jettySize=auto;html=1;" edge="1" parent="1" source="7VIyenH2oEbh0rDHe2Yn-46" target="7VIyenH2oEbh0rDHe2Yn-48">
          <mxGeometry relative="1" as="geometry" />
        </mxCell>
        <mxCell id="7VIyenH2oEbh0rDHe2Yn-46" value="num = num + 1" style="rounded=0;whiteSpace=wrap;html=1;" vertex="1" parent="1">
          <mxGeometry x="-2335.75" y="-884" width="114" height="23" as="geometry" />
        </mxCell>
        <mxCell id="7VIyenH2oEbh0rDHe2Yn-47" value="" style="edgeStyle=orthogonalEdgeStyle;rounded=0;orthogonalLoop=1;jettySize=auto;html=1;" edge="1" parent="1" source="7VIyenH2oEbh0rDHe2Yn-48" target="7VIyenH2oEbh0rDHe2Yn-50">
          <mxGeometry relative="1" as="geometry" />
        </mxCell>
        <mxCell id="7VIyenH2oEbh0rDHe2Yn-48" value="num" style="shape=parallelogram;perimeter=parallelogramPerimeter;whiteSpace=wrap;html=1;fixedSize=1;" vertex="1" parent="1">
          <mxGeometry x="-2319.75" y="-837" width="82" height="22" as="geometry" />
        </mxCell>
        <mxCell id="7VIyenH2oEbh0rDHe2Yn-50" value="suma = suma + num" style="rounded=0;whiteSpace=wrap;html=1;" vertex="1" parent="1">
          <mxGeometry x="-2335.75" y="-789" width="114" height="23" as="geometry" />
        </mxCell>
        <mxCell id="7VIyenH2oEbh0rDHe2Yn-67" style="edgeStyle=orthogonalEdgeStyle;rounded=0;orthogonalLoop=1;jettySize=auto;html=1;entryX=0.5;entryY=0;entryDx=0;entryDy=0;" edge="1" parent="1" source="7VIyenH2oEbh0rDHe2Yn-52" target="7VIyenH2oEbh0rDHe2Yn-46">
          <mxGeometry relative="1" as="geometry" />
        </mxCell>
        <mxCell id="7VIyenH2oEbh0rDHe2Yn-52" value="num &amp;lt; 100" style="rhombus;whiteSpace=wrap;html=1;" vertex="1" parent="1">
          <mxGeometry x="-2318.75" y="-972" width="80" height="56" as="geometry" />
        </mxCell>
        <mxCell id="7VIyenH2oEbh0rDHe2Yn-54" value="" style="endArrow=classic;html=1;rounded=0;" edge="1" parent="1">
          <mxGeometry width="50" height="50" relative="1" as="geometry">
            <mxPoint x="-2408" y="-778" as="sourcePoint" />
            <mxPoint x="-2408" y="-996" as="targetPoint" />
          </mxGeometry>
        </mxCell>
        <mxCell id="7VIyenH2oEbh0rDHe2Yn-55" value="" style="endArrow=classic;html=1;rounded=0;" edge="1" parent="1">
          <mxGeometry width="50" height="50" relative="1" as="geometry">
            <mxPoint x="-2408" y="-992" as="sourcePoint" />
            <mxPoint x="-2278" y="-992" as="targetPoint" />
          </mxGeometry>
        </mxCell>
        <mxCell id="7VIyenH2oEbh0rDHe2Yn-56" value="F" style="text;html=1;align=center;verticalAlign=middle;whiteSpace=wrap;rounded=0;" vertex="1" parent="1">
          <mxGeometry x="-2218.75" y="-972" width="31" height="24" as="geometry" />
        </mxCell>
        <mxCell id="7VIyenH2oEbh0rDHe2Yn-57" value="V" style="text;html=1;align=center;verticalAlign=middle;whiteSpace=wrap;rounded=0;" vertex="1" parent="1">
          <mxGeometry x="-2286" y="-914" width="54" height="25" as="geometry" />
        </mxCell>
        <mxCell id="7VIyenH2oEbh0rDHe2Yn-61" value="" style="edgeStyle=orthogonalEdgeStyle;rounded=0;orthogonalLoop=1;jettySize=auto;html=1;exitX=0.506;exitY=0.865;exitDx=0;exitDy=0;exitPerimeter=0;" edge="1" parent="1" source="7VIyenH2oEbh0rDHe2Yn-59" target="7VIyenH2oEbh0rDHe2Yn-60">
          <mxGeometry relative="1" as="geometry" />
        </mxCell>
        <mxCell id="7VIyenH2oEbh0rDHe2Yn-59" value="Esta es la sumatoria de los números del 1 al 10 : suma" style="shape=document;whiteSpace=wrap;html=1;boundedLbl=1;" vertex="1" parent="1">
          <mxGeometry x="-2346.75" y="-708" width="136" height="80" as="geometry" />
        </mxCell>
        <mxCell id="7VIyenH2oEbh0rDHe2Yn-60" value="Fin" style="ellipse;whiteSpace=wrap;html=1;" vertex="1" parent="1">
          <mxGeometry x="-2318.75" y="-594" width="82" height="39" as="geometry" />
        </mxCell>
        <mxCell id="7VIyenH2oEbh0rDHe2Yn-68" value="" style="endArrow=classic;html=1;rounded=0;exitX=0;exitY=0.5;exitDx=0;exitDy=0;" edge="1" parent="1" source="7VIyenH2oEbh0rDHe2Yn-50">
          <mxGeometry width="50" height="50" relative="1" as="geometry">
            <mxPoint x="-2396" y="-789" as="sourcePoint" />
            <mxPoint x="-2413" y="-777" as="targetPoint" />
          </mxGeometry>
        </mxCell>
        <mxCell id="7VIyenH2oEbh0rDHe2Yn-69" value="" style="endArrow=classic;html=1;rounded=0;" edge="1" parent="1">
          <mxGeometry width="50" height="50" relative="1" as="geometry">
            <mxPoint x="-2238.75" y="-944.36" as="sourcePoint" />
            <mxPoint x="-2143" y="-944" as="targetPoint" />
          </mxGeometry>
        </mxCell>
        <mxCell id="7VIyenH2oEbh0rDHe2Yn-70" value="" style="endArrow=classic;html=1;rounded=0;" edge="1" parent="1">
          <mxGeometry width="50" height="50" relative="1" as="geometry">
            <mxPoint x="-2148" y="-943" as="sourcePoint" />
            <mxPoint x="-2148" y="-734" as="targetPoint" />
          </mxGeometry>
        </mxCell>
        <mxCell id="7VIyenH2oEbh0rDHe2Yn-71" value="" style="endArrow=classic;html=1;rounded=0;exitX=0;exitY=0.5;exitDx=0;exitDy=0;entryX=0.5;entryY=0;entryDx=0;entryDy=0;" edge="1" parent="1" target="7VIyenH2oEbh0rDHe2Yn-59">
          <mxGeometry width="50" height="50" relative="1" as="geometry">
            <mxPoint x="-2150" y="-737" as="sourcePoint" />
            <mxPoint x="-2283" y="-737" as="targetPoint" />
            <Array as="points">
              <mxPoint x="-2279" y="-737" />
            </Array>
          </mxGeometry>
        </mxCell>
        <mxCell id="7VIyenH2oEbh0rDHe2Yn-72" value="" style="edgeStyle=orthogonalEdgeStyle;rounded=0;orthogonalLoop=1;jettySize=auto;html=1;" edge="1" parent="1" source="7VIyenH2oEbh0rDHe2Yn-73" target="7VIyenH2oEbh0rDHe2Yn-75">
          <mxGeometry relative="1" as="geometry" />
        </mxCell>
        <mxCell id="7VIyenH2oEbh0rDHe2Yn-73" value="Inicio" style="ellipse;whiteSpace=wrap;html=1;" vertex="1" parent="1">
          <mxGeometry x="-1681.75" y="-1224" width="84" height="54" as="geometry" />
        </mxCell>
        <mxCell id="7VIyenH2oEbh0rDHe2Yn-74" value="" style="edgeStyle=orthogonalEdgeStyle;rounded=0;orthogonalLoop=1;jettySize=auto;html=1;" edge="1" parent="1" source="7VIyenH2oEbh0rDHe2Yn-75" target="7VIyenH2oEbh0rDHe2Yn-77">
          <mxGeometry relative="1" as="geometry" />
        </mxCell>
        <mxCell id="7VIyenH2oEbh0rDHe2Yn-75" value="Definir num, suma como Entero" style="rounded=0;whiteSpace=wrap;html=1;" vertex="1" parent="1">
          <mxGeometry x="-1699.75" y="-1149" width="120" height="60" as="geometry" />
        </mxCell>
        <mxCell id="7VIyenH2oEbh0rDHe2Yn-97" value="" style="edgeStyle=orthogonalEdgeStyle;rounded=0;orthogonalLoop=1;jettySize=auto;html=1;" edge="1" parent="1" source="7VIyenH2oEbh0rDHe2Yn-77" target="7VIyenH2oEbh0rDHe2Yn-96">
          <mxGeometry relative="1" as="geometry" />
        </mxCell>
        <mxCell id="7VIyenH2oEbh0rDHe2Yn-77" value="Lista de número del 1 al 10" style="shape=parallelogram;perimeter=parallelogramPerimeter;whiteSpace=wrap;html=1;fixedSize=1;" vertex="1" parent="1">
          <mxGeometry x="-1742.25" y="-1061" width="205" height="37" as="geometry" />
        </mxCell>
        <mxCell id="7VIyenH2oEbh0rDHe2Yn-80" value="" style="edgeStyle=orthogonalEdgeStyle;rounded=0;orthogonalLoop=1;jettySize=auto;html=1;" edge="1" parent="1" source="7VIyenH2oEbh0rDHe2Yn-81" target="7VIyenH2oEbh0rDHe2Yn-82">
          <mxGeometry relative="1" as="geometry" />
        </mxCell>
        <mxCell id="7VIyenH2oEbh0rDHe2Yn-81" value="num" style="shape=parallelogram;perimeter=parallelogramPerimeter;whiteSpace=wrap;html=1;fixedSize=1;" vertex="1" parent="1">
          <mxGeometry x="-1680.75" y="-937" width="82" height="22" as="geometry" />
        </mxCell>
        <mxCell id="7VIyenH2oEbh0rDHe2Yn-100" value="" style="edgeStyle=orthogonalEdgeStyle;rounded=0;orthogonalLoop=1;jettySize=auto;html=1;" edge="1" parent="1" source="7VIyenH2oEbh0rDHe2Yn-82" target="7VIyenH2oEbh0rDHe2Yn-90">
          <mxGeometry relative="1" as="geometry" />
        </mxCell>
        <mxCell id="7VIyenH2oEbh0rDHe2Yn-82" value="suma = suma + num" style="rounded=0;whiteSpace=wrap;html=1;" vertex="1" parent="1">
          <mxGeometry x="-1696.75" y="-889" width="114" height="23" as="geometry" />
        </mxCell>
        <mxCell id="7VIyenH2oEbh0rDHe2Yn-89" value="" style="edgeStyle=orthogonalEdgeStyle;rounded=0;orthogonalLoop=1;jettySize=auto;html=1;exitX=0.506;exitY=0.865;exitDx=0;exitDy=0;exitPerimeter=0;" edge="1" parent="1" source="7VIyenH2oEbh0rDHe2Yn-90" target="7VIyenH2oEbh0rDHe2Yn-91">
          <mxGeometry relative="1" as="geometry" />
        </mxCell>
        <mxCell id="7VIyenH2oEbh0rDHe2Yn-90" value="Esta es la sumatoria de los números del 1 al 10 : suma" style="shape=document;whiteSpace=wrap;html=1;boundedLbl=1;" vertex="1" parent="1">
          <mxGeometry x="-1707.75" y="-836" width="136" height="80" as="geometry" />
        </mxCell>
        <mxCell id="7VIyenH2oEbh0rDHe2Yn-91" value="Fin" style="ellipse;whiteSpace=wrap;html=1;" vertex="1" parent="1">
          <mxGeometry x="-1680" y="-722" width="82" height="39" as="geometry" />
        </mxCell>
        <mxCell id="7VIyenH2oEbh0rDHe2Yn-99" style="edgeStyle=orthogonalEdgeStyle;rounded=0;orthogonalLoop=1;jettySize=auto;html=1;entryX=0.5;entryY=0;entryDx=0;entryDy=0;" edge="1" parent="1" source="7VIyenH2oEbh0rDHe2Yn-96" target="7VIyenH2oEbh0rDHe2Yn-81">
          <mxGeometry relative="1" as="geometry" />
        </mxCell>
        <mxCell id="7VIyenH2oEbh0rDHe2Yn-96" value="Para num = 1 , 1, 100" style="shape=hexagon;perimeter=hexagonPerimeter2;whiteSpace=wrap;html=1;fixedSize=1;" vertex="1" parent="1">
          <mxGeometry x="-1709.25" y="-999" width="139" height="33" as="geometry" />
        </mxCell>
      </root>
    </mxGraphModel>
  </diagram>
</mxfile>
